<svg width="300" height="142" viewBox="0 0 300 142" fill="none" xmlns="http://www.w3.org/2000/svg">
<path d="M188.32 89L180.064 67.784H152.896L144.736 89H136L162.784 20.168H170.56L197.248 89H188.32ZM169.792 39.368C169.6 38.856 169.28 37.928 168.832 36.584C168.384 35.24 167.936 33.864 167.488 32.456C167.104 30.984 166.784 29.864 166.528 29.096C166.208 30.376 165.856 31.688 165.472 33.032C165.152 34.312 164.8 35.496 164.416 36.584C164.096 37.672 163.808 38.6 163.552 39.368L155.776 60.104H177.472L169.792 39.368ZM206.625 89V20.456H215.265V81.32H245.217V89H206.625ZM276.789 89H268.149V28.04H246.741V20.456H298.101V28.04H276.789V89Z" fill="#70848A"/>
<path d="M170.195 120H154.235V91.44H170.195V94.6H157.835V103.52H169.475V106.64H157.835V116.84H170.195V120ZM180.702 120L172.582 98.56H176.342L180.902 111.2C181.115 111.787 181.342 112.44 181.582 113.16C181.822 113.88 182.035 114.573 182.222 115.24C182.409 115.88 182.542 116.427 182.622 116.88H182.782C182.889 116.427 183.035 115.867 183.222 115.2C183.435 114.533 183.662 113.84 183.902 113.12C184.169 112.4 184.395 111.76 184.582 111.2L189.142 98.56H192.902L184.742 120H180.702ZM204.415 98.2C207.028 98.2 208.961 98.7733 210.215 99.92C211.468 101.067 212.095 102.893 212.095 105.4V120H209.535L208.855 116.96H208.695C208.081 117.733 207.441 118.387 206.775 118.92C206.135 119.427 205.388 119.8 204.535 120.04C203.708 120.28 202.695 120.4 201.495 120.4C200.215 120.4 199.055 120.173 198.015 119.72C197.001 119.267 196.201 118.573 195.615 117.64C195.028 116.68 194.735 115.48 194.735 114.04C194.735 111.907 195.575 110.267 197.255 109.12C198.935 107.947 201.521 107.307 205.015 107.2L208.655 107.08V105.8C208.655 104.013 208.268 102.773 207.495 102.08C206.721 101.387 205.628 101.04 204.215 101.04C203.095 101.04 202.028 101.213 201.015 101.56C200.001 101.88 199.055 102.253 198.175 102.68L197.095 100.04C198.028 99.5333 199.135 99.1067 200.415 98.76C201.695 98.3867 203.028 98.2 204.415 98.2ZM205.455 109.64C202.788 109.747 200.935 110.173 199.895 110.92C198.881 111.667 198.375 112.72 198.375 114.08C198.375 115.28 198.735 116.16 199.455 116.72C200.201 117.28 201.148 117.56 202.295 117.56C204.108 117.56 205.615 117.067 206.815 116.08C208.015 115.067 208.615 113.52 208.615 111.44V109.52L205.455 109.64ZM226.316 120.4C223.65 120.4 221.516 119.48 219.916 117.64C218.316 115.773 217.516 113 217.516 109.32C217.516 105.64 218.316 102.867 219.916 101C221.543 99.1067 223.69 98.16 226.356 98.16C227.476 98.16 228.45 98.3067 229.276 98.6C230.103 98.8667 230.823 99.24 231.436 99.72C232.05 100.2 232.57 100.733 232.996 101.32H233.236C233.21 100.973 233.156 100.467 233.076 99.8C233.023 99.1067 232.996 98.56 232.996 98.16V89.6H236.516V120H233.676L233.156 117.12H232.996C232.57 117.733 232.05 118.293 231.436 118.8C230.823 119.28 230.09 119.667 229.236 119.96C228.41 120.253 227.436 120.4 226.316 120.4ZM226.876 117.48C229.143 117.48 230.73 116.867 231.636 115.64C232.57 114.387 233.036 112.507 233.036 110V109.36C233.036 106.693 232.596 104.653 231.716 103.24C230.836 101.8 229.21 101.08 226.836 101.08C224.943 101.08 223.516 101.84 222.556 103.36C221.623 104.853 221.156 106.867 221.156 109.4C221.156 111.96 221.623 113.947 222.556 115.36C223.516 116.773 224.956 117.48 226.876 117.48ZM251.606 98.16C253.446 98.16 255.019 98.56 256.326 99.36C257.659 100.16 258.672 101.293 259.366 102.76C260.086 104.2 260.446 105.893 260.446 107.84V109.96H245.766C245.819 112.387 246.432 114.24 247.606 115.52C248.806 116.773 250.472 117.4 252.606 117.4C253.966 117.4 255.166 117.28 256.206 117.04C257.272 116.773 258.366 116.4 259.486 115.92V119C258.392 119.48 257.312 119.827 256.246 120.04C255.179 120.28 253.912 120.4 252.446 120.4C250.419 120.4 248.619 119.987 247.046 119.16C245.499 118.333 244.286 117.107 243.406 115.48C242.552 113.827 242.126 111.813 242.126 109.44C242.126 107.093 242.512 105.08 243.286 103.4C244.086 101.72 245.192 100.427 246.606 99.52C248.046 98.6133 249.712 98.16 251.606 98.16ZM251.566 101.04C249.886 101.04 248.552 101.587 247.566 102.68C246.606 103.747 246.032 105.24 245.846 107.16H256.766C256.766 105.933 256.579 104.867 256.206 103.96C255.832 103.053 255.259 102.347 254.486 101.84C253.739 101.307 252.766 101.04 251.566 101.04ZM279.864 114.08C279.864 115.467 279.517 116.627 278.824 117.56C278.131 118.493 277.144 119.2 275.864 119.68C274.584 120.16 273.064 120.4 271.304 120.4C269.811 120.4 268.517 120.28 267.424 120.04C266.357 119.8 265.411 119.467 264.584 119.04V115.84C265.437 116.267 266.464 116.667 267.664 117.04C268.891 117.387 270.131 117.56 271.384 117.56C273.171 117.56 274.464 117.28 275.264 116.72C276.064 116.133 276.464 115.36 276.464 114.4C276.464 113.867 276.317 113.387 276.024 112.96C275.731 112.533 275.197 112.107 274.424 111.68C273.677 111.253 272.597 110.773 271.184 110.24C269.797 109.707 268.611 109.173 267.624 108.64C266.637 108.107 265.877 107.467 265.344 106.72C264.811 105.973 264.544 105.013 264.544 103.84C264.544 102.027 265.277 100.627 266.744 99.64C268.237 98.6533 270.184 98.16 272.584 98.16C273.891 98.16 275.104 98.2933 276.224 98.56C277.371 98.8 278.437 99.1467 279.424 99.6L278.224 102.4C277.637 102.133 277.011 101.907 276.344 101.72C275.704 101.507 275.051 101.347 274.384 101.24C273.717 101.107 273.037 101.04 272.344 101.04C270.904 101.04 269.797 101.28 269.024 101.76C268.277 102.213 267.904 102.84 267.904 103.64C267.904 104.227 268.077 104.733 268.424 105.16C268.771 105.56 269.344 105.96 270.144 106.36C270.971 106.733 272.064 107.187 273.424 107.72C274.784 108.227 275.944 108.747 276.904 109.28C277.864 109.813 278.597 110.467 279.104 111.24C279.611 111.987 279.864 112.933 279.864 114.08Z" fill="#335058"/>
<rect x="70.7107" width="100" height="100" rx="30" transform="rotate(45 70.7107 0)" fill="#335058"/>
<rect x="23" y="84.4878" width="71" height="71" transform="rotate(-60 23 84.4878)" fill="#3D626C"/>
<rect x="41" y="87.9014" width="48.556" height="48.556" transform="rotate(-75 41 87.9014)" fill="#52828F"/>
<path d="M65.5103 82.9876L64.4755 73.5585L53.5412 70.6287L47.9691 78.2875L44.4531 77.3454L62.6558 52.531L65.7854 53.3696L69.1035 83.9504L65.5103 82.9876ZM63.4057 61.0142C63.3837 60.7874 63.355 60.3794 63.3196 59.7902C63.2842 59.201 63.2523 58.5988 63.2238 57.9839C63.228 57.35 63.22 56.8647 63.1998 56.528C62.933 57.0087 62.6498 57.4988 62.3504 57.9983C62.0835 58.4789 61.8142 58.9175 61.5423 59.314C61.2962 59.7173 61.0802 60.0598 60.8943 60.3413L55.5285 67.8483L64.2605 70.188L63.4057 61.0142ZM88.2935 89.0924L72.8773 84.9616L80.2692 57.3748L95.6853 61.5055L94.8675 64.5578L82.9286 61.3588L80.62 69.9749L91.8633 72.9875L91.0558 76.0012L79.8125 72.9886L77.1725 82.841L89.1113 86.04L88.2935 89.0924Z" fill="#304954"/>
</svg>
